<?xml version="1.0" standalone="no"?>
<!DOCTYPE svg PUBLIC "-//W3C//DTD SVG 20010904//EN"
 "http://www.w3.org/TR/2001/REC-SVG-20010904/DTD/svg10.dtd">
<svg version="1.0" xmlns="http://www.w3.org/2000/svg"
 width="512.000000pt" height="512.000000pt" viewBox="0 0 512.000000 512.000000"
 preserveAspectRatio="xMidYMid meet">

<g transform="translate(0.000000,512.000000) scale(0.100000,-0.100000)"
fill="#000000" stroke="none">
<path d="M2460 5111 c-125 -41 -197 -132 -209 -266 l-6 -70 -362 -3 -362 -2
-20 -26 c-36 -46 -22 -93 33 -114 18 -7 430 -10 1257 -10 1188 0 1231 -1 1267
-19 39 -20 435 -467 461 -520 28 -59 14 -81 -217 -346 -201 -231 -221 -251
-267 -267 -47 -16 -164 -17 -1690 -15 -1807 2 -1664 -3 -1725 62 l-25 27 -3
486 c-2 470 -2 488 17 519 11 18 38 41 60 53 38 19 58 20 319 20 288 0 333 5
352 40 16 30 12 64 -10 88 -21 22 -25 22 -330 22 -292 0 -312 -1 -367 -22 -76
-28 -154 -104 -177 -174 -15 -46 -16 -104 -14 -555 3 -495 3 -505 25 -544 31
-58 89 -110 158 -142 l60 -28 783 -3 782 -3 0 -164 0 -164 -597 -3 -598 -3
-63 -34 c-56 -31 -89 -64 -292 -298 -186 -215 -232 -273 -246 -315 -20 -61
-15 -138 14 -194 23 -45 412 -495 471 -546 21 -18 61 -42 87 -53 47 -19 76
-20 637 -23 l587 -3 -2 -447 -3 -447 -85 -5 c-97 -6 -160 -35 -204 -93 -51
-66 -56 -93 -56 -285 0 -242 -27 -222 296 -222 266 1 274 2 293 51 11 30 -8
83 -34 93 -9 3 -104 6 -211 6 l-194 0 0 119 0 119 31 31 31 31 445 0 c432 0
446 -1 474 -20 37 -27 49 -73 49 -187 l0 -93 -203 0 c-200 0 -204 0 -225 -23
-29 -31 -29 -77 1 -105 23 -21 30 -22 273 -22 325 0 310 -13 302 253 -4 119
-8 150 -27 192 -46 103 -113 146 -241 154 l-85 6 -3 448 -2 447 758 0 c651 0
766 2 817 15 102 27 170 82 212 172 l24 51 -3 514 -3 513 -27 46 c-33 57 -86
104 -147 132 -46 22 -51 22 -838 25 l-793 2 0 165 0 165 555 0 c372 0 571 4
607 11 75 16 136 50 189 106 103 107 412 471 432 508 16 30 22 58 22 115 0 95
-13 118 -175 305 -303 348 -316 362 -377 391 l-58 29 -595 5 -595 5 -6 70
c-10 118 -58 193 -153 242 -42 22 -67 27 -141 30 -49 1 -101 -1 -115 -6z m185
-155 c48 -20 75 -68 75 -133 l0 -53 -160 0 -160 0 0 48 c0 96 57 152 158 152
29 0 68 -6 87 -14z m75 -1821 l0 -165 -160 0 -160 0 0 165 0 165 160 0 160 0
0 -165z m1727 -335 c25 -11 51 -33 63 -52 19 -32 20 -49 20 -517 l0 -483 -38
-38 c-22 -22 -55 -43 -79 -49 -29 -8 -505 -10 -1680 -9 -1544 3 -1640 4 -1670
21 -18 9 -129 129 -248 265 -217 250 -237 279 -220 332 4 11 101 130 216 263
142 164 223 249 251 265 l41 22 1651 0 c1606 0 1652 -1 1693 -20z m-1727
-1750 l0 -450 -160 0 -160 0 0 450 0 450 160 0 160 0 0 -450z"/>
</g>
</svg>
