<?xml version="1.0" standalone="no"?>
<!DOCTYPE svg PUBLIC "-//W3C//DTD SVG 20010904//EN"
 "http://www.w3.org/TR/2001/REC-SVG-20010904/DTD/svg10.dtd">
<svg version="1.0" xmlns="http://www.w3.org/2000/svg"
 width="512.000000pt" height="512.000000pt" viewBox="0 0 512.000000 512.000000"
 preserveAspectRatio="xMidYMid meet">

<g transform="translate(0.000000,512.000000) scale(0.100000,-0.100000)"
fill="#000000" stroke="none">
<path d="M1425 5107 c-55 -22 -84 -48 -110 -100 l-25 -51 0 -443 0 -443 -59 0
c-52 0 -62 -3 -80 -26 -20 -26 -21 -38 -21 -320 0 -279 1 -295 20 -314 29 -29
51 -32 239 -28 168 3 173 4 192 27 18 22 19 43 19 322 0 351 4 339 -100 339
l-60 0 0 433 c0 408 1 435 18 450 10 10 33 17 50 17 l32 0 -20 -32 c-27 -44
-27 -156 -1 -213 66 -144 255 -153 338 -17 19 31 23 52 23 120 0 52 -5 93 -14
111 -15 28 -53 51 -84 51 -10 0 -35 21 -56 46 -53 63 -102 84 -196 83 -41 0
-88 -6 -105 -12z m303 -298 c-4 -39 -30 -59 -55 -43 -10 6 -19 25 -21 43 -3
30 -2 31 38 31 40 0 41 -1 38 -31z m-278 -1084 l0 -195 -85 0 -85 0 0 195 0
195 85 0 85 0 0 -195z"/>
<path d="M2525 5095 c-29 -29 -33 -75 -7 -97 9 -9 64 -42 122 -73 413 -225
710 -490 766 -684 30 -100 3 -182 -87 -266 -62 -58 -115 -93 -254 -167 -112
-60 -132 -86 -104 -136 29 -52 59 -52 167 2 262 130 384 245 428 405 33 116
-7 261 -110 405 -60 84 -212 228 -342 325 -104 77 -353 231 -461 285 -65 32
-87 33 -118 1z"/>
<path d="M3115 5095 c-29 -28 -32 -65 -7 -93 9 -11 67 -51 128 -90 61 -39 131
-84 154 -101 64 -46 118 -39 138 18 20 56 -8 83 -212 210 -71 45 -140 81 -153
81 -13 0 -35 -11 -48 -25z"/>
<path d="M3649 5110 c-9 -5 -22 -23 -28 -39 -22 -51 3 -81 101 -120 45 -19
144 -65 220 -103 584 -294 937 -656 1014 -1038 76 -377 -190 -1005 -765 -1805
l-86 -120 -5 245 c-5 228 -7 248 -27 286 -25 47 -73 91 -120 111 -21 8 -73 13
-145 13 -107 0 -116 -2 -165 -30 -49 -28 -103 -89 -103 -117 0 -8 -14 -13 -40
-13 -99 0 -130 -46 -130 -187 0 -117 17 -162 79 -214 117 -101 279 -66 354 75
18 34 21 58 22 141 0 115 -11 142 -73 174 l-37 20 93 1 c86 0 95 -2 117 -25
l25 -24 0 -331 0 -331 -122 -152 c-336 -419 -726 -860 -1100 -1243 -154 -157
-168 -175 -168 -208 0 -43 31 -76 73 -76 25 0 55 26 196 173 351 362 678 726
971 1082 68 83 129 157 137 165 11 12 13 -7 13 -123 l0 -137 -85 0 c-135 0
-125 34 -125 -425 l0 -386 25 -24 24 -25 234 0 c222 0 236 1 261 21 l26 20 0
150 c0 136 -2 151 -20 169 -25 25 -71 26 -101 1 -20 -16 -23 -29 -27 -115 l-4
-96 -134 0 -134 0 0 280 0 280 134 0 134 0 4 -91 c3 -85 5 -92 31 -115 34 -29
56 -30 91 -3 l26 20 0 150 c0 188 0 189 -125 189 l-85 0 0 235 0 234 136 183
c420 565 715 1098 824 1484 60 214 73 393 41 549 -82 396 -399 752 -948 1064
-160 91 -429 211 -470 211 -10 0 -25 -5 -34 -10z m29 -2937 c-4 -46 -10 -61
-32 -80 -35 -30 -71 -29 -101 2 -21 20 -25 34 -25 80 l0 55 81 0 81 0 -4 -57z"/>
<path d="M3715 4710 c-31 -12 -48 -38 -48 -70 0 -24 23 -52 143 -167 78 -76
151 -141 161 -145 46 -18 106 37 93 87 -11 44 -260 284 -309 298 -11 3 -29 2
-40 -3z"/>
<path d="M4129 4159 c-18 -18 -20 -29 -15 -73 21 -162 21 -152 -19 -232 -32
-62 -37 -80 -29 -102 13 -38 55 -59 91 -46 36 12 88 90 109 162 27 90 6 250
-37 293 -25 25 -74 24 -100 -2z"/>
<path d="M2670 3639 c-455 -181 -1662 -527 -2500 -715 -135 -31 -170 -51 -170
-99 0 -30 41 -75 68 -75 50 0 969 229 1384 344 663 185 1338 409 1381 458 23
27 22 73 -3 98 -28 28 -71 25 -160 -11z"/>
<path d="M3696 3484 c-101 -82 -158 -135 -162 -151 -13 -52 37 -103 88 -90 22
6 227 166 296 230 39 38 44 85 10 117 -42 39 -65 28 -232 -106z"/>
<path d="M3203 3096 c-197 -150 -218 -169 -221 -205 -4 -41 29 -81 68 -81 18
0 70 33 166 106 76 58 149 115 162 127 28 26 30 79 2 107 -36 36 -70 26 -177
-54z"/>
<path d="M2735 2738 c-30 -17 -256 -187 -287 -216 -52 -48 -26 -132 40 -132
36 0 346 227 355 260 8 30 -7 64 -35 84 -26 19 -45 20 -73 4z"/>
<path d="M2040 2225 c-162 -118 -190 -145 -190 -181 0 -32 42 -74 73 -74 22 0
267 169 330 228 37 35 37 83 1 111 -15 12 -36 21 -48 21 -12 0 -87 -47 -166
-105z"/>
<path d="M1456 1798 c-94 -68 -160 -123 -166 -139 -21 -48 16 -99 72 -99 21 0
284 182 332 230 24 24 25 74 1 100 -37 41 -71 28 -239 -92z"/>
<path d="M900 1395 c-79 -58 -153 -114 -164 -124 -27 -28 -25 -79 3 -103 44
-34 69 -24 232 92 187 134 207 162 154 215 -42 43 -67 34 -225 -80z"/>
<path d="M318 977 c-96 -68 -161 -122 -168 -138 -21 -48 16 -99 72 -99 24 0
321 204 346 237 19 26 14 62 -13 88 -42 43 -66 34 -237 -88z"/>
</g>
</svg>
